<svg xmlns="http://www.w3.org/2000/svg" width="560" height="640" viewBox="0 0 560 640"><style>@keyframes vm-dau{0%{transform:matrix(1,0,0,1,0,0);opacity:1}0.833%{transform:matrix(1,-0.0002,0.0002,1,-0.0452,0.0359);opacity:1}1.667%{transform:matrix(1,-0.0014,0.0014,1,-0.3618,0.2876);opacity:1}2.5%{transform:matrix(1,-0.0048,0.0048,1,-1.2194,0.9726);opacity:1}3.333%{transform:matrix(0.9999,-0.0115,0.0115,0.9999,-2.8827,2.315);opacity:1}4.167%{transform:matrix(0.9997,-0.0224,0.0224,0.9997,-5.6053,4.5521);opacity:1}5%{transform:matrix(0.9992,-0.0388,0.0388,0.9992,-9.621,7.9446);opacity:1}5.833%{transform:matrix(0.9981,-0.0616,0.0616,0.9981,-15.1315,12.7879);opacity:1}6.667%{transform:matrix(0.9958,-0.0918,0.0918,0.9958,-22.2904,19.4253);opacity:1}7.5%{transform:matrix(0.9914,-0.1305,0.1305,0.9914,-31.1816,28.2611);opacity:1}8.333%{transform:matrix(0.9856,-0.169,0.169,0.9856,-39.7218,37.4366);opacity:1}9.167%{transform:matrix(0.98,-0.1989,0.1989,0.98,-46.1215,44.8088);opacity:1}10%{transform:matrix(0.9752,-0.2212,0.2212,0.9752,-50.7819,50.4748);opacity:1}10.833%{transform:matrix(0.9715,-0.2371,0.2371,0.9715,-54.0413,54.5993);opacity:1}11.667%{transform:matrix(0.9688,-0.2477,0.2477,0.9688,-56.1881,57.3936);opacity:1}12.5%{transform:matrix(0.9672,-0.2541,0.2541,0.9672,-57.4754,59.1);opacity:1}13.333%{transform:matrix(0.9663,-0.2574,0.2574,0.9663,-58.132,59.9795);opacity:1}14.167%{transform:matrix(0.966,-0.2586,0.2586,0.966,-58.3731,60.3041);opacity:1}15%{transform:matrix(0.9659,-0.2588,0.2588,0.9659,-58.4076,60.3505);opacity:1}40%{transform:matrix(0.9659,-0.2588,0.2588,0.9659,-58.4076,60.3505);opacity:1}40.833%{transform:matrix(0.966,-0.2585,0.2585,0.966,-58.3387,60.2577);opacity:1}41.667%{transform:matrix(0.9667,-0.256,0.256,0.9667,-57.8559,59.6089);opacity:1}42.5%{transform:matrix(0.9684,-0.2494,0.2494,0.9684,-56.5372,57.854);opacity:1}43.333%{transform:matrix(0.9716,-0.2366,0.2366,0.9716,-53.9349,54.4625);opacity:1}44.167%{transform:matrix(0.9766,-0.2152,0.2152,0.9766,-49.547,48.9475);opacity:1}45%{transform:matrix(0.9831,-0.1832,0.1832,0.9831,-42.7791,40.9022);opacity:1}45.833%{transform:matrix(0.9904,-0.1382,0.1382,0.9904,-32.9022,30.0528);opacity:1}46.667%{transform:matrix(0.997,-0.0779,0.0779,0.997,-19.0113,16.3349);opacity:1}47.5%{transform:matrix(1,0,0,1,0,0);opacity:1}48.333%{transform:matrix(0.997,0.0779,-0.0779,0.997,20.2253,-14.8053);opacity:1}49.167%{transform:matrix(0.9904,0.1382,-0.1382,0.9904,36.7392,-25.2181);opacity:1}50%{transform:matrix(0.9831,0.1832,-0.1832,0.9831,49.548,-32.3734);opacity:1}50.833%{transform:matrix(0.9766,0.2152,-0.2152,0.9766,58.92,-37.1374);opacity:1}51.667%{transform:matrix(0.9716,0.2366,-0.2366,0.9716,65.2873,-40.1584);opacity:1}52.5%{transform:matrix(0.9684,0.2494,-0.2494,0.9684,69.1812,-41.9225);opacity:1}53.333%{transform:matrix(0.9667,0.256,-0.256,0.9667,71.1897,-42.8083);opacity:1}54.167%{transform:matrix(0.966,0.2585,-0.2585,0.966,71.9312,-43.1311);opacity:1}55%{transform:matrix(0.9659,0.2588,-0.2588,0.9659,72.0372,-43.1771);opacity:1}80%{transform:matrix(0.9659,0.2588,-0.2588,0.9659,72.0372,-43.1771);opacity:1}80.833%{transform:matrix(0.966,0.2586,-0.2586,0.966,71.9842,-43.1541);opacity:1}81.667%{transform:matrix(0.9663,0.2574,-0.2574,0.9663,71.6133,-42.993);opacity:1}82.5%{transform:matrix(0.9672,0.2541,-0.2541,0.9672,70.6077,-42.5533);opacity:1}83.333%{transform:matrix(0.9688,0.2477,-0.2477,0.9688,68.6536,-41.6871);opacity:1}84.167%{transform:matrix(0.9715,0.2371,-0.2371,0.9715,65.4447,-40.2309);opacity:1}85%{transform:matrix(0.9752,0.2212,-0.2212,0.9752,60.6879,-37.9933);opacity:1}85.833%{transform:matrix(0.98,0.1989,-0.1989,0.98,54.1116,-34.7413);opacity:1}86.667%{transform:matrix(0.9856,0.169,-0.169,0.9856,45.4787,-30.1829);opacity:1}87.5%{transform:matrix(0.9914,0.1305,-0.1305,0.9914,34.6036,-23.9493);opacity:1}88.333%{transform:matrix(0.9958,0.0918,-0.0918,0.9958,23.9796,-17.2969);opacity:1}89.167%{transform:matrix(0.9981,0.0616,-0.0616,0.9981,15.8899,-11.8323);opacity:1}90%{transform:matrix(0.9992,0.0388,-0.0388,0.9992,9.9218,-7.5656);opacity:1}90.833%{transform:matrix(0.9997,0.0224,-0.0224,0.9997,5.7061,-4.4252);opacity:1}91.667%{transform:matrix(0.9999,0.0115,-0.0115,0.9999,2.9091,-2.2817);opacity:1}92.5%{transform:matrix(1,0.0048,-0.0048,1,1.2241,-0.9667);opacity:1}93.333%{transform:matrix(1,0.0014,-0.0014,1,0.3622,-0.287);opacity:1}94.167%{transform:matrix(1,0.0002,-0.0002,1,0.0453,-0.0359);opacity:1}95%{transform:matrix(1,0,0,1,0,0);opacity:1}100%{transform:matrix(1,0,0,1,0,0);opacity:1}}
.vm-dau{animation:vm-dau 4s linear infinite;transform-origin:0 0}
@keyframes vm-eyeL{0%{transform:matrix(1,0,0,1,0,0);opacity:1}0.833%{transform:matrix(1,0,0,1,-0.0117,0);opacity:1}1.667%{transform:matrix(1,0,0,1,-0.0933,0);opacity:1}2.5%{transform:matrix(1,0,0,1,-0.3149,0);opacity:1}3.333%{transform:matrix(1,0,0,1,-0.7464,0);opacity:1}4.167%{transform:matrix(1,0,0,1,-1.4577,0);opacity:1}5%{transform:matrix(1,0,0,1,-2.519,0);opacity:1}5.833%{transform:matrix(1,0,0,1,-4,0);opacity:1}6.667%{transform:matrix(1,0,0,1,-5.481,0);opacity:1}7.5%{transform:matrix(1,0,0,1,-6.5423,0);opacity:1}8.333%{transform:matrix(1,0,0,1,-7.2536,0);opacity:1}9.167%{transform:matrix(1,0,0,1,-7.6851,0);opacity:1}10%{transform:matrix(1,0,0,1,-7.9067,0);opacity:1}10.833%{transform:matrix(1,0,0,1,-7.9883,0);opacity:1}11.667%{transform:matrix(1,0,0,1,-8,0);opacity:1}40%{transform:matrix(1,0,0,1,-8,0);opacity:1}40.833%{transform:matrix(1,0,0,1,-7.9767,0);opacity:1}41.667%{transform:matrix(1,0,0,1,-7.8134,0);opacity:1}42.5%{transform:matrix(1,0,0,0.8637,-7.3703,19.2178);opacity:1}43.333%{transform:matrix(1,0,0,0.2163,-6.5073,110.5022);opacity:1}44.167%{transform:matrix(1,0,0,0.08,-5.0845,129.72);opacity:1}45%{transform:matrix(1,0,0,0.7274,-2.9621,38.4356);opacity:1}45.833%{transform:matrix(1,0,0,0.9659,0,4.8044);opacity:1}46.667%{transform:matrix(1,0,0,1,2.9621,0);opacity:1}47.5%{transform:matrix(1,0,0,1,5.0845,0);opacity:1}48.333%{transform:matrix(1,0,0,1,6.5073,0);opacity:1}49.167%{transform:matrix(1,0,0,1,7.3703,0);opacity:1}50%{transform:matrix(1,0,0,1,7.8134,0);opacity:1}50.833%{transform:matrix(1,0,0,1,7.9767,0);opacity:1}51.667%{transform:matrix(1,0,0,1,8,0);opacity:1}80%{transform:matrix(1,0,0,1,8,0);opacity:1}80.833%{transform:matrix(1,0,0,1,7.9922,0);opacity:1}81.667%{transform:matrix(1,0,0,1,7.9375,0);opacity:1}82.5%{transform:matrix(1,0,0,1,7.7891,0);opacity:1}83.333%{transform:matrix(1,0,0,1,7.5,0);opacity:1}84.167%{transform:matrix(1,0,0,0.8637,7.0234,19.2178);opacity:1}85%{transform:matrix(1,0,0,0.2163,6.3125,110.5022);opacity:1}85.833%{transform:matrix(1,0,0,0.08,5.3203,129.72);opacity:1}86.667%{transform:matrix(1,0,0,0.7274,4,38.4356);opacity:1}87.5%{transform:matrix(1,0,0,0.9659,2.6797,4.8044);opacity:1}88.333%{transform:matrix(1,0,0,1,1.6875,0);opacity:1}89.167%{transform:matrix(1,0,0,1,0.9766,0);opacity:1}90%{transform:matrix(1,0,0,1,0.5,0);opacity:1}90.833%{transform:matrix(1,0,0,1,0.2109,0);opacity:1}91.667%{transform:matrix(1,0,0,1,0.0625,0);opacity:1}92.5%{transform:matrix(1,0,0,1,0.0078,0);opacity:1}93.333%{transform:matrix(1,0,0,1,0,0);opacity:1}100%{transform:matrix(1,0,0,1,0,0);opacity:1}}
.vm-eyeL{animation:vm-eyeL 4s linear infinite;transform-origin:0 0}
@keyframes vm-eyeR{0%{transform:matrix(1,0,0,1,0,0);opacity:1}0.833%{transform:matrix(1,0,0,1,-0.0117,0);opacity:1}1.667%{transform:matrix(1,0,0,1,-0.0933,0);opacity:1}2.5%{transform:matrix(1,0,0,1,-0.3149,0);opacity:1}3.333%{transform:matrix(1,0,0,1,-0.7464,0);opacity:1}4.167%{transform:matrix(1,0,0,1,-1.4577,0);opacity:1}5%{transform:matrix(1,0,0,1,-2.519,0);opacity:1}5.833%{transform:matrix(1,0,0,1,-4,0);opacity:1}6.667%{transform:matrix(1,0,0,1,-5.481,0);opacity:1}7.5%{transform:matrix(1,0,0,1,-6.5423,0);opacity:1}8.333%{transform:matrix(1,0,0,1,-7.2536,0);opacity:1}9.167%{transform:matrix(1,0,0,1,-7.6851,0);opacity:1}10%{transform:matrix(1,0,0,1,-7.9067,0);opacity:1}10.833%{transform:matrix(1,0,0,1,-7.9883,0);opacity:1}11.667%{transform:matrix(1,0,0,1,-8,0);opacity:1}40%{transform:matrix(1,0,0,1,-8,0);opacity:1}40.833%{transform:matrix(1,0,0,1,-7.9767,0);opacity:1}41.667%{transform:matrix(1,0,0,1,-7.8134,0);opacity:1}42.5%{transform:matrix(1,0,0,0.8637,-7.3703,19.2178);opacity:1}43.333%{transform:matrix(1,0,0,0.2163,-6.5073,110.5022);opacity:1}44.167%{transform:matrix(1,0,0,0.08,-5.0845,129.72);opacity:1}45%{transform:matrix(1,0,0,0.7274,-2.9621,38.4356);opacity:1}45.833%{transform:matrix(1,0,0,0.9659,0,4.8044);opacity:1}46.667%{transform:matrix(1,0,0,1,2.9621,0);opacity:1}47.5%{transform:matrix(1,0,0,1,5.0845,0);opacity:1}48.333%{transform:matrix(1,0,0,1,6.5073,0);opacity:1}49.167%{transform:matrix(1,0,0,1,7.3703,0);opacity:1}50%{transform:matrix(1,0,0,1,7.8134,0);opacity:1}50.833%{transform:matrix(1,0,0,1,7.9767,0);opacity:1}51.667%{transform:matrix(1,0,0,1,8,0);opacity:1}80%{transform:matrix(1,0,0,1,8,0);opacity:1}80.833%{transform:matrix(1,0,0,1,7.9922,0);opacity:1}81.667%{transform:matrix(1,0,0,1,7.9375,0);opacity:1}82.5%{transform:matrix(1,0,0,1,7.7891,0);opacity:1}83.333%{transform:matrix(1,0,0,1,7.5,0);opacity:1}84.167%{transform:matrix(1,0,0,0.8637,7.0234,19.2178);opacity:1}85%{transform:matrix(1,0,0,0.2163,6.3125,110.5022);opacity:1}85.833%{transform:matrix(1,0,0,0.08,5.3203,129.72);opacity:1}86.667%{transform:matrix(1,0,0,0.7274,4,38.4356);opacity:1}87.5%{transform:matrix(1,0,0,0.9659,2.6797,4.8044);opacity:1}88.333%{transform:matrix(1,0,0,1,1.6875,0);opacity:1}89.167%{transform:matrix(1,0,0,1,0.9766,0);opacity:1}90%{transform:matrix(1,0,0,1,0.5,0);opacity:1}90.833%{transform:matrix(1,0,0,1,0.2109,0);opacity:1}91.667%{transform:matrix(1,0,0,1,0.0625,0);opacity:1}92.5%{transform:matrix(1,0,0,1,0.0078,0);opacity:1}93.333%{transform:matrix(1,0,0,1,0,0);opacity:1}100%{transform:matrix(1,0,0,1,0,0);opacity:1}}
.vm-eyeR{animation:vm-eyeR 4s linear infinite;transform-origin:0 0}
@keyframes vm-than{0%{transform:matrix(1,0,0,1,0,0);opacity:1}0.833%{transform:matrix(1,0,0,1,-0.0099,0.0048);opacity:1}1.667%{transform:matrix(1,-0.0002,0.0002,1,-0.0789,0.0383);opacity:1}2.5%{transform:matrix(1,-0.0006,0.0006,1,-0.2663,0.1294);opacity:1}3.333%{transform:matrix(1,-0.0015,0.0015,1,-0.6311,0.3069);opacity:1}4.167%{transform:matrix(1,-0.003,0.003,1,-1.2321,0.6004);opacity:1}5%{transform:matrix(1,-0.0052,0.0052,1,-2.1279,1.0398);opacity:1}5.833%{transform:matrix(1,-0.0082,0.0082,1,-3.3765,1.6563);opacity:1}6.667%{transform:matrix(0.9999,-0.0123,0.0123,0.9999,-5.0351,2.4825);opacity:1}7.5%{transform:matrix(0.9998,-0.0175,0.0175,0.9998,-7.1599,3.5532);opacity:1}8.333%{transform:matrix(0.9997,-0.0226,0.0226,0.9997,-9.2791,4.635);opacity:1}9.167%{transform:matrix(0.9996,-0.0267,0.0267,0.9996,-10.9256,5.4851);opacity:1}10%{transform:matrix(0.9996,-0.0297,0.0297,0.9996,-12.1607,6.1283);opacity:1}10.833%{transform:matrix(0.9995,-0.0319,0.0319,0.9995,-13.0445,6.5915);opacity:1}11.667%{transform:matrix(0.9994,-0.0334,0.0334,0.9994,-13.6363,6.9031);opacity:1}12.5%{transform:matrix(0.9994,-0.0343,0.0343,0.9994,-13.9951,7.0925);opacity:1}13.333%{transform:matrix(0.9994,-0.0347,0.0347,0.9994,-14.1792,7.1898);opacity:1}14.167%{transform:matrix(0.9994,-0.0349,0.0349,0.9994,-14.2471,7.2257);opacity:1}15%{transform:matrix(0.9994,-0.0349,0.0349,0.9994,-14.2568,7.2309);opacity:1}15.833%{transform:matrix(0.9994,-0.0349,0.0349,0.9994,-14.2557,7.2303);opacity:1}16.667%{transform:matrix(0.9994,-0.0349,0.0349,0.9994,-14.2486,7.2266);opacity:1}17.5%{transform:matrix(0.9994,-0.0348,0.0348,0.9994,-14.2292,7.2163);opacity:1}18.333%{transform:matrix(0.9994,-0.0347,0.0347,0.9994,-14.1913,7.1963);opacity:1}19.167%{transform:matrix(0.9994,-0.0346,0.0346,0.9994,-14.129,7.1633);opacity:1}20%{transform:matrix(0.9994,-0.0344,0.0344,0.9994,-14.036,7.1141);opacity:1}20.833%{transform:matrix(0.9994,-0.034,0.034,0.9994,-13.9061,7.0455);opacity:1}21.667%{transform:matrix(0.9994,-0.0336,0.0336,0.9994,-13.7333,6.9542);opacity:1}22.5%{transform:matrix(0.9995,-0.0331,0.0331,0.9995,-13.5113,6.8372);opacity:1}23.333%{transform:matrix(0.9995,-0.0324,0.0324,0.9995,-13.234,6.6912);opacity:1}24.167%{transform:matrix(0.9995,-0.0315,0.0315,0.9995,-12.8952,6.5131);opacity:1}25%{transform:matrix(0.9995,-0.0305,0.0305,0.9995,-12.4886,6.2999);opacity:1}25.833%{transform:matrix(0.9996,-0.0294,0.0294,0.9996,-12.008,6.0485);opacity:1}26.667%{transform:matrix(0.9996,-0.028,0.028,0.9996,-11.4471,5.7561);opacity:1}27.5%{transform:matrix(0.9997,-0.0264,0.0264,0.9997,-10.7995,5.4197);opacity:1}28.333%{transform:matrix(0.9997,-0.0246,0.0246,0.9997,-10.059,5.0366);opacity:1}29.167%{transform:matrix(0.9997,-0.0225,0.0225,0.9997,-9.219,4.6041);opacity:1}30%{transform:matrix(0.9998,-0.0202,0.0202,0.9998,-8.273,4.1197);opacity:1}30.833%{transform:matrix(0.9998,-0.0176,0.0176,0.9998,-7.2146,3.581);opacity:1}31.667%{transform:matrix(0.9999,-0.0147,0.0147,0.9999,-6.037,2.9856);opacity:1}32.5%{transform:matrix(0.9999,-0.0115,0.0115,0.9999,-4.7336,2.3317);opacity:1}33.333%{transform:matrix(1,-0.008,0.008,1,-3.2976,1.6172);opacity:1}34.167%{transform:matrix(1,-0.0042,0.0042,1,-1.7221,0.8404);opacity:1}35%{transform:matrix(1,0,0,1,0,0);opacity:1}35.833%{transform:matrix(1,0.0042,-0.0042,1,1.7256,-0.8332);opacity:1}36.667%{transform:matrix(1,0.008,-0.008,1,3.3105,-1.5907);opacity:1}37.5%{transform:matrix(0.9999,0.0115,-0.0115,0.9999,4.7602,-2.277);opacity:1}38.333%{transform:matrix(0.9999,0.0147,-0.0147,0.9999,6.0803,-2.8965);opacity:1}39.167%{transform:matrix(0.9998,0.0176,-0.0176,0.9998,7.2765,-3.4535);opacity:1}40%{transform:matrix(0.9998,0.0202,-0.0202,0.9998,8.3545,-3.9519);opacity:1}40.833%{transform:matrix(0.9997,0.0225,-0.0225,0.9997,9.3202,-4.3955);opacity:1}41.667%{transform:matrix(0.9997,0.0246,-0.0246,0.9997,10.1796,-4.788);opacity:1}42.5%{transform:matrix(0.9997,0.0264,-0.0264,0.9997,10.9388,-5.1329);opacity:1}43.333%{transform:matrix(0.9996,0.028,-0.028,0.9996,11.6036,-5.4336);opacity:1}44.167%{transform:matrix(0.9996,0.0294,-0.0294,0.9996,12.1804,-5.6934);opacity:1}45%{transform:matrix(0.9995,0.0305,-0.0305,0.9995,12.6751,-5.9155);opacity:1}45.833%{transform:matrix(0.9995,0.0315,-0.0315,0.9995,13.0942,-6.1031);opacity:1}46.667%{transform:matrix(0.9995,0.0324,-0.0324,0.9995,13.4437,-6.2592);opacity:1}47.5%{transform:matrix(0.9995,0.0331,-0.0331,0.9995,13.73,-6.3867);opacity:1}48.333%{transform:matrix(0.9994,0.0336,-0.0336,0.9994,13.9592,-6.4887);opacity:1}49.167%{transform:matrix(0.9994,0.034,-0.034,0.9994,14.1378,-6.5681);opacity:1}50%{transform:matrix(0.9994,0.0344,-0.0344,0.9994,14.2721,-6.6277);opacity:1}50.833%{transform:matrix(0.9994,0.0346,-0.0346,0.9994,14.3683,-6.6703);opacity:1}51.667%{transform:matrix(0.9994,0.0347,-0.0347,0.9994,14.4328,-6.6989);opacity:1}52.5%{transform:matrix(0.9994,0.0348,-0.0348,0.9994,14.4719,-6.7163);opacity:1}53.333%{transform:matrix(0.9994,0.0349,-0.0349,0.9994,14.492,-6.7252);opacity:1}54.167%{transform:matrix(0.9994,0.0349,-0.0349,0.9994,14.4994,-6.7285);opacity:1}55%{transform:matrix(0.9994,0.0349,-0.0349,0.9994,14.5004,-6.7289);opacity:1}55.833%{transform:matrix(0.9994,0.0349,-0.0349,0.9994,14.4999,-6.7287);opacity:1}56.667%{transform:matrix(0.9994,0.0349,-0.0349,0.9994,14.4962,-6.727);opacity:1}57.5%{transform:matrix(0.9994,0.0349,-0.0349,0.9994,14.4862,-6.7226);opacity:1}58.333%{transform:matrix(0.9994,0.0348,-0.0348,0.9994,14.4666,-6.7139);opacity:1}59.167%{transform:matrix(0.9994,0.0347,-0.0347,0.9994,14.4343,-6.6996);opacity:1}60%{transform:matrix(0.9994,0.0346,-0.0346,0.9994,14.3862,-6.6783);opacity:1}60.833%{transform:matrix(0.9994,0.0345,-0.0345,0.9994,14.3191,-6.6486);opacity:1}61.667%{transform:matrix(0.9994,0.0343,-0.0343,0.9994,14.2298,-6.6089);opacity:1}62.5%{transform:matrix(0.9994,0.034,-0.034,0.9994,14.1151,-6.558);opacity:1}63.333%{transform:matrix(0.9994,0.0336,-0.0336,0.9994,13.9719,-6.4944);opacity:1}64.167%{transform:matrix(0.9994,0.0332,-0.0332,0.9994,13.797,-6.4166);opacity:1}65%{transform:matrix(0.9995,0.0327,-0.0327,0.9995,13.5873,-6.3232);opacity:1}65.833%{transform:matrix(0.9995,0.0321,-0.0321,0.9995,13.3397,-6.2128);opacity:1}66.667%{transform:matrix(0.9995,0.0314,-0.0314,0.9995,13.0509,-6.0838);opacity:1}67.5%{transform:matrix(0.9995,0.0306,-0.0306,0.9995,12.7179,-5.9347);opacity:1}68.333%{transform:matrix(0.9996,0.0297,-0.0297,0.9996,12.3375,-5.764);opacity:1}69.167%{transform:matrix(0.9996,0.0287,-0.0287,0.9996,11.9067,-5.5702);opacity:1}70%{transform:matrix(0.9996,0.0275,-0.0275,0.9996,11.4223,-5.3517);opacity:1}70.833%{transform:matrix(0.9997,0.0262,-0.0262,0.9997,10.8813,-5.1069);opacity:1}71.667%{transform:matrix(0.9997,0.0248,-0.0248,0.9997,10.2807,-4.834);opacity:1}72.5%{transform:matrix(0.9997,0.0232,-0.0232,0.9997,9.6173,-4.5314);opacity:1}73.333%{transform:matrix(0.9998,0.0215,-0.0215,0.9998,8.8882,-4.1974);opacity:1}74.167%{transform:matrix(0.9998,0.0195,-0.0195,0.9998,8.0904,-3.8301);opacity:1}75%{transform:matrix(0.9998,0.0175,-0.0175,0.9998,7.2209,-3.4277);opacity:1}75.833%{transform:matrix(0.9999,0.0154,-0.0154,0.9999,6.3522,-3.0235);opacity:1}76.667%{transform:matrix(0.9999,0.0134,-0.0134,0.9999,5.5566,-2.6514);opacity:1}77.5%{transform:matrix(0.9999,0.0117,-0.0117,0.9999,4.8308,-2.3103);opacity:1}78.333%{transform:matrix(0.9999,0.0101,-0.0101,0.9999,4.1714,-1.999);opacity:1}79.167%{transform:matrix(1,0.0087,-0.0087,1,3.5753,-1.7165);opacity:1}80%{transform:matrix(1,0.0074,-0.0074,1,3.039,-1.4614);opacity:1}80.833%{transform:matrix(1,0.0062,-0.0062,1,2.5594,-1.2326);opacity:1}81.667%{transform:matrix(1,0.0052,-0.0052,1,2.1333,-1.0288);opacity:1}82.5%{transform:matrix(1,0.0043,-0.0043,1,1.7574,-0.8485);opacity:1}83.333%{transform:matrix(1,0.0035,-0.0035,1,1.4285,-0.6904);opacity:1}84.167%{transform:matrix(1,0.0028,-0.0028,1,1.1436,-0.5532);opacity:1}85%{transform:matrix(1,0.0022,-0.0022,1,0.8993,-0.4354);opacity:1}85.833%{transform:matrix(1,0.0017,-0.0017,1,0.6926,-0.3355);opacity:1}86.667%{transform:matrix(1,0.0013,-0.0013,1,0.5203,-0.2522);opacity:1}87.5%{transform:matrix(1,0.0009,-0.0009,1,0.3793,-0.1839);opacity:1}88.333%{transform:matrix(1,0.0006,-0.0006,1,0.2664,-0.1292);opacity:1}89.167%{transform:matrix(1,0.0004,-0.0004,1,0.1784,-0.0866);opacity:1}90%{transform:matrix(1,0.0003,-0.0003,1,0.1124,-0.0545);opacity:1}90.833%{transform:matrix(1,0.0002,-0.0002,1,0.065,-0.0316);opacity:1}91.667%{transform:matrix(1,0.0001,-0.0001,1,0.0333,-0.0162);opacity:1}92.5%{transform:matrix(1,0,0,1,0.014,-0.0068);opacity:1}93.333%{transform:matrix(1,0,0,1,0.0042,-0.002);opacity:1}94.167%{transform:matrix(1,0,0,1,0.0005,-0.0003);opacity:1}95%{transform:matrix(1,0,0,1,0,0);opacity:1}100%{transform:matrix(1,0,0,1,0,0);opacity:1}}
.vm-than{animation:vm-than 4s linear infinite;transform-origin:0 0}
</style><rect width="560" height="640" fill="#faf4e8"/><g transform="matrix(1 0 0 1 80 150)" opacity="1"><g transform="matrix(1 0 0 1 0 0)" opacity="1"><path d="M158 414C174.56 414 188 418.93 188 425C188 432.18 174.56 438 158 438C141.44 438 128 432.18 128 425C128 418.93 141.44 414 158 414Z" fill="#9b7653" fill-rule="evenodd" stroke="#9b7653" stroke-width="1" stroke-linejoin="round"></path></g><g transform="matrix(1 0 0 1 0 0)" opacity="1"><path d="M242 414C258.56 414 272 418.93 272 425C272 432.18 258.56 438 242 438C225.44 438 212 432.18 212 425C212 418.93 225.44 414 242 414Z" fill="#9b7653" fill-rule="evenodd" stroke="#9b7653" stroke-width="1" stroke-linejoin="round"></path></g><g class="vm-than" style="transform:matrix(1,0,0,1,0,0)" opacity="1"><g transform="matrix(1 0 0 1 0 0)" opacity="1"><path d="M200 260C250.78 260 292 291.36 292 330C292 376.37 250.78 414 200 414C149.22 414 108 376.37 108 330C108 291.36 149.22 260 200 260Z" fill="#7cba43" fill-rule="evenodd" stroke="#7cba43" stroke-width="1" stroke-linejoin="round"></path></g><g transform="matrix(1 0 0 1 0 0)" opacity="1"><path d="M200 304C232.02 304 258 325.5 258 352C258 382.91 232.02 408 200 408C167.98 408 142 382.91 142 352C142 325.5 167.98 304 200 304Z" fill="#f6e8ce" fill-rule="evenodd" stroke="#f6e8ce" stroke-width="1" stroke-linejoin="round"></path></g><g transform="matrix(0.9877 0.1564 -0.1564 0.9877 46.3161 -16.5025)" opacity="1"><path d="M116 282C130.9 282 143 303.5 143 330C143 364.22 130.9 392 116 392C101.1 392 89 364.22 89 330C89 303.5 101.1 282 116 282Z" fill="#5f9a31" fill-rule="evenodd" stroke="#5f9a31" stroke-width="1" stroke-linejoin="round"></path></g><g transform="matrix(0.9877 -0.1564 0.1564 0.9877 -41.3915 46.0713)" opacity="1"><path d="M284 282C298.9 282 311 303.5 311 330C311 364.22 298.9 392 284 392C269.1 392 257 364.22 257 330C257 303.5 269.1 282 284 282Z" fill="#5f9a31" fill-rule="evenodd" stroke="#5f9a31" stroke-width="1" stroke-linejoin="round"></path></g><g class="vm-dau" style="transform:matrix(1,0,0,1,0,0)" opacity="1"><g transform="matrix(1 0 0 1 0 0)" opacity="1"><path d="M200 32C270.66 32 328 84.86 328 150C328 211.82 270.66 262 200 262C129.34 262 72 211.82 72 150C72 84.86 129.34 32 200 32Z" fill="#7cba43" fill-rule="evenodd" stroke="#7cba43" stroke-width="1" stroke-linejoin="round"></path></g><g transform="matrix(1 0 0 1 0 0)" opacity="1"><path d="M196 62C176 40 178 8 196 4C200 2 206 6 206 14C212 2 228 6 228 22C228 40 216 56 204 64C200 66 198 65 196 62Z" fill="#7cba43" fill-rule="evenodd" stroke="#7cba43" stroke-width="1" stroke-linejoin="round"></path></g><g transform="matrix(1 0 0 1 0 0)" opacity="1"><path d="M200 102C249.68 102 290 128.88 290 162C290 205.06 249.68 240 200 240C150.32 240 110 205.06 110 162C110 128.88 150.32 102 200 102Z" fill="#f6e8ce" fill-rule="evenodd" stroke="#f6e8ce" stroke-width="1" stroke-linejoin="round"></path></g><g transform="matrix(1 0 0 1 0 0)" opacity="1"><path d="M150 97.5C163.25 97.5 174 99.96 174 103C174 106.04 163.25 108.5 150 108.5C136.75 108.5 126 106.04 126 103C126 99.96 136.75 97.5 150 97.5Z" fill="#33291f" fill-rule="evenodd" stroke="#33291f" stroke-width="1" stroke-linejoin="round"></path></g><g transform="matrix(1 0 0 1 0 0)" opacity="1"><path d="M250 97.5C263.25 97.5 274 99.96 274 103C274 106.04 263.25 108.5 250 108.5C236.75 108.5 226 106.04 226 103C226 99.96 236.75 97.5 250 97.5Z" fill="#33291f" fill-rule="evenodd" stroke="#33291f" stroke-width="1" stroke-linejoin="round"></path></g><g class="vm-eyeL" style="transform:matrix(1,0,0,1,0,0)" opacity="1"><path d="M150 120C161.04 120 170 129.41 170 141C170 152.59 161.04 162 150 162C138.96 162 130 152.59 130 141C130 129.41 138.96 120 150 120Z" fill="#33291f" fill-rule="evenodd" stroke="#33291f" stroke-width="1" stroke-linejoin="round"></path><path d="M143 126C146.59 126 149.5 129.14 149.5 133C149.5 136.86 146.59 140 143 140C139.41 140 136.5 136.86 136.5 133C136.5 129.14 139.41 126 143 126Z" fill="#ffffff" fill-rule="evenodd" stroke="#ffffff" stroke-width="1" stroke-linejoin="round"></path></g><g class="vm-eyeR" style="transform:matrix(1,0,0,1,0,0)" opacity="1"><path d="M250 120C261.04 120 270 129.41 270 141C270 152.59 261.04 162 250 162C238.96 162 230 152.59 230 141C230 129.41 238.96 120 250 120Z" fill="#33291f" fill-rule="evenodd" stroke="#33291f" stroke-width="1" stroke-linejoin="round"></path><path d="M243 126C246.59 126 249.5 129.14 249.5 133C249.5 136.86 246.59 140 243 140C239.41 140 236.5 136.86 236.5 133C236.5 129.14 239.41 126 243 126Z" fill="#ffffff" fill-rule="evenodd" stroke="#ffffff" stroke-width="1" stroke-linejoin="round"></path></g><g transform="matrix(1 0 0 1 0 0)" opacity="1"><path d="M112 174C120.83 174 128 178.03 128 183C128 187.97 120.83 192 112 192C103.17 192 96 187.97 96 183C96 178.03 103.17 174 112 174Z" fill="#f3b4a1" fill-rule="evenodd" stroke="#f3b4a1" stroke-width="1" stroke-linejoin="round"></path></g><g transform="matrix(1 0 0 1 0 0)" opacity="1"><path d="M288 174C296.83 174 304 178.03 304 183C304 187.97 296.83 192 288 192C279.17 192 272 187.97 272 183C272 178.03 279.17 174 288 174Z" fill="#f3b4a1" fill-rule="evenodd" stroke="#f3b4a1" stroke-width="1" stroke-linejoin="round"></path></g><g transform="matrix(1 0 0 1 0 0)" opacity="1"><path d="M175 160C187 151 213 151 225 160C222 178 208 191 200 194C192 191 178 178 175 160Z" fill="#9b7653" fill-rule="evenodd" stroke="#9b7653" stroke-width="1" stroke-linejoin="round"></path></g><g transform="matrix(1 0 0 1 0 0)" opacity="1"><path d="M181 198C190 194 210 194 219 198C215 214 207 221 200 221C193 221 185 214 181 198Z" fill="#5b4436" fill-rule="evenodd" stroke="#5b4436" stroke-width="1" stroke-linejoin="round"></path></g><g transform="matrix(1 0 0 1 0 0)" opacity="1"><path d="M132 250C155 262 245 262 268 250C266 274 236 312 200 326C164 312 134 274 132 250Z" fill="#e8502a" fill-rule="evenodd" stroke="#e8502a" stroke-width="1" stroke-linejoin="round"></path><path d="M266 249C276.49 249 285 253.93 285 260C285 267.18 276.49 273 266 273C255.51 273 247 267.18 247 260C247 253.93 255.51 249 266 249Z" fill="#e8502a" fill-rule="evenodd" stroke="#e8502a" stroke-width="1" stroke-linejoin="round"></path><path d="M278 262C298 258 312 268 312 282C299 278 290 286 285 296C276 290 271 272 278 262Z" fill="#e8502a" fill-rule="evenodd" stroke="#e8502a" stroke-width="1" stroke-linejoin="round"></path></g></g></g></g></svg>